<svg width="625" height="326" viewBox="0 0 625 326" fill="none" xmlns="http://www.w3.org/2000/svg">
<path d="M563.768 134.485H197.078C195.521 134.485 194.027 135.228 192.926 136.552C191.825 137.876 191.207 139.671 191.207 141.543C191.207 143.416 191.825 145.211 192.926 146.535C194.027 147.859 195.521 148.602 197.078 148.602H207.464V317.47C207.464 319.342 208.083 321.138 209.184 322.462C210.285 323.785 211.778 324.529 213.335 324.529C214.892 324.529 216.385 323.785 217.486 322.462C218.587 321.138 219.206 319.342 219.206 317.47L219.295 148.602H513.601L540.737 317.47C540.737 319.342 541.356 321.138 542.457 322.462C543.558 323.785 545.051 324.529 546.608 324.529C548.165 324.529 549.658 323.785 550.759 322.462C551.86 321.138 552.479 319.342 552.479 317.47L554.187 148.602H563.768C565.325 148.602 566.819 147.859 567.92 146.535C569.021 145.211 569.639 143.416 569.639 141.543C569.639 139.671 569.021 137.876 567.92 136.552C566.819 135.228 565.325 134.485 563.768 134.485V134.485Z" fill="#CCCCCC"/>
<path d="M260.639 103.032V132.924H198.353C196.721 132.992 195.093 132.673 193.564 131.985C192.034 131.297 190.632 130.253 189.437 128.914C188.243 127.574 187.279 125.965 186.602 124.178C185.925 122.39 185.547 120.46 185.491 118.498C185.434 116.535 185.699 114.578 186.271 112.738C186.843 110.899 187.711 109.213 188.826 107.777C189.94 106.341 191.278 105.183 192.765 104.368C194.251 103.554 195.856 103.1 197.488 103.032C197.777 103.02 198.065 103.02 198.353 103.032L260.639 103.032Z" fill="#F2F2F2"/>
<path d="M262.169 132.694C262.168 132.999 262.068 133.291 261.888 133.507C261.709 133.722 261.466 133.843 261.212 133.843H197.244C193.771 133.841 190.442 132.18 187.987 129.226C185.532 126.273 184.154 122.268 184.154 118.093C184.154 113.917 185.532 109.913 187.987 106.959C190.442 104.005 193.771 102.345 197.244 102.342H261.212C261.338 102.341 261.463 102.371 261.579 102.428C261.695 102.486 261.801 102.571 261.89 102.677C261.979 102.784 262.05 102.911 262.098 103.051C262.146 103.191 262.171 103.34 262.171 103.491C262.171 103.643 262.146 103.792 262.098 103.932C262.05 104.072 261.979 104.199 261.89 104.306C261.801 104.412 261.695 104.497 261.579 104.555C261.463 104.612 261.338 104.642 261.212 104.641H197.244C194.28 104.647 191.439 106.066 189.344 108.588C187.25 111.11 186.074 114.529 186.074 118.093C186.074 121.657 187.25 125.075 189.344 127.597C191.439 130.119 194.28 131.539 197.244 131.544H261.212C261.466 131.544 261.709 131.665 261.888 131.881C262.068 132.097 262.168 132.389 262.169 132.694V132.694Z" fill="#BAD1FB"/>
<path d="M260.639 109.93H193.706C193.655 109.93 193.607 109.906 193.571 109.864C193.535 109.821 193.514 109.763 193.514 109.702C193.513 109.641 193.533 109.583 193.568 109.539C193.604 109.496 193.652 109.471 193.703 109.47H260.639C260.689 109.471 260.737 109.495 260.773 109.538C260.808 109.581 260.828 109.639 260.828 109.7C260.828 109.76 260.808 109.819 260.773 109.862C260.737 109.905 260.689 109.929 260.639 109.93Z" fill="#CCCCCC"/>
<path d="M260.639 115.448H193.706C193.655 115.449 193.607 115.425 193.571 115.382C193.535 115.34 193.514 115.281 193.514 115.221C193.513 115.16 193.533 115.101 193.568 115.058C193.604 115.014 193.652 114.989 193.703 114.989H260.639C260.689 114.989 260.737 115.014 260.773 115.057C260.808 115.1 260.828 115.158 260.828 115.218C260.828 115.279 260.808 115.337 260.773 115.38C260.737 115.423 260.689 115.448 260.639 115.448Z" fill="#CCCCCC"/>
<path d="M260.639 120.967H193.706C193.655 120.967 193.607 120.943 193.571 120.901C193.535 120.858 193.514 120.8 193.514 120.739C193.513 120.678 193.533 120.62 193.568 120.576C193.604 120.533 193.652 120.508 193.703 120.507H260.639C260.689 120.508 260.737 120.532 260.773 120.575C260.808 120.618 260.828 120.676 260.828 120.737C260.828 120.798 260.808 120.856 260.773 120.899C260.737 120.942 260.689 120.966 260.639 120.967Z" fill="#CCCCCC"/>
<path d="M260.639 126.485H193.706C193.655 126.486 193.607 126.462 193.571 126.419C193.535 126.377 193.514 126.318 193.514 126.258C193.513 126.197 193.533 126.138 193.568 126.095C193.604 126.051 193.652 126.026 193.703 126.026H260.639C260.689 126.026 260.737 126.051 260.773 126.094C260.808 126.137 260.828 126.195 260.828 126.255C260.828 126.316 260.808 126.374 260.773 126.417C260.737 126.46 260.689 126.485 260.639 126.485Z" fill="#CCCCCC"/>
<path d="M248.897 71.5386V101.431H186.612C183.315 101.569 180.108 100.126 177.696 97.4207C175.284 94.7153 173.864 90.9685 173.749 87.0045C173.635 83.0406 174.834 79.1843 177.084 76.2838C179.334 73.3834 182.45 71.6765 185.747 71.5386C186.035 71.5265 186.324 71.5265 186.612 71.5386H248.897Z" fill="#F2F2F2"/>
<path d="M250.427 101.201C250.427 101.506 250.326 101.798 250.147 102.014C249.968 102.229 249.725 102.35 249.471 102.35H185.503C182.028 102.35 178.696 100.691 176.24 97.7371C173.783 94.7833 172.403 90.777 172.403 86.5996C172.403 82.4222 173.783 78.416 176.24 75.4621C178.696 72.5083 182.028 70.8488 185.503 70.8488H249.471C249.597 70.8488 249.721 70.8786 249.837 70.9363C249.953 70.9941 250.058 71.0788 250.147 71.1855C250.236 71.2923 250.306 71.4191 250.354 71.5585C250.402 71.698 250.427 71.8475 250.427 71.9985C250.427 72.1495 250.402 72.299 250.354 72.4385C250.306 72.5779 250.236 72.7047 250.147 72.8115C250.058 72.9182 249.953 73.0029 249.837 73.0607C249.721 73.1184 249.597 73.1482 249.471 73.1482H185.503C182.536 73.1482 179.69 74.5654 177.592 77.088C175.494 79.6107 174.315 83.0321 174.315 86.5996C174.315 90.1672 175.494 93.5886 177.592 96.1112C179.69 98.6339 182.536 100.051 185.503 100.051H249.471C249.725 100.051 249.968 100.172 250.147 100.388C250.326 100.604 250.427 100.896 250.427 101.201Z" fill="#3F3D56"/>
<path d="M248.897 78.4368H181.965C181.914 78.4371 181.866 78.4133 181.829 78.3706C181.793 78.3279 181.773 78.2698 181.772 78.209C181.772 78.1481 181.792 78.0895 181.827 78.0461C181.862 78.0026 181.911 77.9777 181.961 77.9769H248.897C248.948 77.9775 248.996 78.002 249.031 78.045C249.067 78.0881 249.087 78.1462 249.087 78.2068C249.087 78.2674 249.067 78.3256 249.031 78.3686C248.996 78.4117 248.948 78.4362 248.897 78.4368V78.4368Z" fill="#CCCCCC"/>
<path d="M248.897 83.9553H181.965C181.914 83.9556 181.866 83.9319 181.829 83.8892C181.793 83.8465 181.773 83.7883 181.772 83.7275C181.772 83.6667 181.792 83.6081 181.827 83.5646C181.862 83.5211 181.911 83.4962 181.961 83.4954H248.897C248.948 83.496 248.996 83.5206 249.031 83.5636C249.067 83.6067 249.087 83.6648 249.087 83.7254C249.087 83.786 249.067 83.8441 249.031 83.8872C248.996 83.9302 248.948 83.9547 248.897 83.9553Z" fill="#CCCCCC"/>
<path d="M248.897 89.4738H181.965C181.914 89.4742 181.866 89.4504 181.829 89.4077C181.793 89.365 181.773 89.3068 181.772 89.246C181.772 89.1852 181.792 89.1266 181.827 89.0831C181.862 89.0396 181.911 89.0148 181.961 89.014H248.897C248.948 89.0146 248.996 89.0391 249.031 89.0821C249.067 89.1252 249.087 89.1833 249.087 89.2439C249.087 89.3045 249.067 89.3626 249.031 89.4057C248.996 89.4487 248.948 89.4732 248.897 89.4738Z" fill="#CCCCCC"/>
<path d="M248.897 94.9923H181.965C181.914 94.9926 181.866 94.9688 181.829 94.9261C181.793 94.8834 181.773 94.8253 181.772 94.7645C181.772 94.7037 181.792 94.6451 181.827 94.6016C181.862 94.5581 181.911 94.5332 181.961 94.5324H248.897C248.948 94.533 248.996 94.5575 249.031 94.6006C249.067 94.6436 249.087 94.7018 249.087 94.7624C249.087 94.823 249.067 94.8811 249.031 94.9242C248.996 94.9672 248.948 94.9917 248.897 94.9923V94.9923Z" fill="#CCCCCC"/>
<path d="M321.354 240.26V214.197C321.354 213.045 320.973 211.94 320.296 211.125C319.618 210.31 318.699 209.853 317.741 209.853H235.552C234.594 209.853 233.675 210.31 232.997 211.125C232.32 211.94 231.939 213.045 231.939 214.197V240.26H321.354Z" fill="#CCCCCC"/>
<path d="M321.354 250.034H231.939V283.699H321.354V250.034Z" fill="#CCCCCC"/>
<path d="M231.939 293.472V319.536C231.939 320.688 232.32 321.792 232.997 322.607C233.675 323.422 234.594 323.879 235.552 323.879H317.741C318.699 323.879 319.618 323.422 320.296 322.607C320.973 321.792 321.354 320.688 321.354 319.536V293.472H231.939Z" fill="#CCCCCC"/>
<path d="M276.195 229.4C277.691 229.4 278.905 227.942 278.905 226.142C278.905 224.343 277.691 222.884 276.195 222.884C274.699 222.884 273.486 224.343 273.486 226.142C273.486 227.942 274.699 229.4 276.195 229.4Z" fill="white"/>
<path d="M276.195 272.839C277.691 272.839 278.905 271.38 278.905 269.581C278.905 267.782 277.691 266.323 276.195 266.323C274.699 266.323 273.486 267.782 273.486 269.581C273.486 271.38 274.699 272.839 276.195 272.839Z" fill="white"/>
<path d="M276.34 315.358C277.837 315.358 279.05 313.899 279.05 312.1C279.05 310.301 277.837 308.842 276.34 308.842C274.844 308.842 273.631 310.301 273.631 312.1C273.631 313.899 274.844 315.358 276.34 315.358Z" fill="white"/>
<path d="M311.217 180.135V210.027H248.931C245.636 210.163 242.431 208.719 240.021 206.014C237.61 203.309 236.192 199.564 236.077 195.602C235.962 191.639 237.161 187.785 239.409 184.885C241.657 181.984 244.771 180.276 248.066 180.135C248.354 180.123 248.643 180.123 248.931 180.135H311.217Z" fill="#F2F2F2"/>
<path d="M312.747 209.798C312.746 210.102 312.646 210.395 312.466 210.61C312.287 210.826 312.044 210.947 311.79 210.947H247.822C244.349 210.948 241.017 209.291 238.56 206.339C236.103 203.387 234.721 199.382 234.719 195.206C234.717 191.029 236.095 187.023 238.549 184.068C241.003 181.112 244.333 179.45 247.806 179.446H311.79C311.916 179.445 312.041 179.475 312.157 179.532C312.273 179.59 312.379 179.674 312.468 179.781C312.557 179.888 312.628 180.015 312.676 180.155C312.724 180.294 312.749 180.444 312.749 180.595C312.749 180.747 312.724 180.896 312.676 181.036C312.628 181.176 312.557 181.302 312.468 181.409C312.379 181.516 312.273 181.601 312.157 181.658C312.041 181.716 311.916 181.745 311.79 181.745H247.822C244.857 181.75 242.016 183.169 239.921 185.691C237.826 188.213 236.649 191.632 236.649 195.196C236.649 198.761 237.826 202.18 239.921 204.702C242.016 207.224 244.857 208.643 247.822 208.648H311.79C312.044 208.648 312.287 208.769 312.466 208.985C312.646 209.2 312.746 209.493 312.747 209.798Z" fill="black"/>
<path d="M311.217 187.034H244.284C244.234 187.034 244.185 187.01 244.149 186.967C244.113 186.925 244.092 186.867 244.092 186.806C244.091 186.745 244.111 186.686 244.146 186.643C244.182 186.599 244.23 186.574 244.281 186.574H311.217C311.267 186.574 311.315 186.599 311.351 186.642C311.386 186.685 311.406 186.743 311.406 186.804C311.406 186.864 311.386 186.922 311.351 186.965C311.315 187.008 311.267 187.033 311.217 187.034H311.217Z" fill="#CCCCCC"/>
<path d="M311.217 192.552H244.284C244.234 192.552 244.185 192.529 244.149 192.486C244.113 192.443 244.092 192.385 244.092 192.324C244.091 192.264 244.111 192.205 244.146 192.161C244.182 192.118 244.23 192.093 244.281 192.092H311.217C311.267 192.093 311.315 192.117 311.351 192.16C311.386 192.203 311.406 192.262 311.406 192.322C311.406 192.383 311.386 192.441 311.351 192.484C311.315 192.527 311.267 192.552 311.217 192.552H311.217Z" fill="#CCCCCC"/>
<path d="M311.217 198.071H244.284C244.234 198.071 244.185 198.047 244.149 198.004C244.113 197.962 244.092 197.904 244.092 197.843C244.091 197.782 244.111 197.723 244.146 197.68C244.182 197.636 244.23 197.612 244.281 197.611H311.217C311.267 197.611 311.315 197.636 311.351 197.679C311.386 197.722 311.406 197.78 311.406 197.841C311.406 197.901 311.386 197.959 311.351 198.002C311.315 198.046 311.267 198.07 311.217 198.071H311.217Z" fill="#CCCCCC"/>
<path d="M311.217 203.589H244.284C244.234 203.589 244.185 203.566 244.149 203.523C244.113 203.48 244.092 203.422 244.092 203.361C244.091 203.301 244.111 203.242 244.146 203.198C244.182 203.155 244.23 203.13 244.281 203.129H311.217C311.267 203.13 311.315 203.154 311.351 203.197C311.386 203.24 311.406 203.299 311.406 203.359C311.406 203.42 311.386 203.478 311.351 203.521C311.315 203.564 311.267 203.589 311.217 203.589H311.217Z" fill="#CCCCCC"/>
<path d="M238.066 61.5667H209.688C209.419 61.5664 209.153 61.6407 208.911 61.7839L201.749 66.0951C201.513 66.2156 201.312 66.4168 201.171 66.6736C201.03 66.9304 200.954 67.2315 200.954 67.5395C200.954 67.8474 201.03 68.1485 201.171 68.4053C201.312 68.6621 201.513 68.8633 201.749 68.9838L208.911 73.295C209.153 73.4382 209.419 73.5125 209.688 73.5123H238.066C238.457 73.5395 238.841 73.3803 239.135 73.0693C239.43 72.7583 239.61 72.3205 239.638 71.8507V63.2281C239.61 62.7583 239.43 62.3205 239.135 62.0096C238.841 61.6986 238.457 61.5394 238.066 61.5667V61.5667Z" fill="#3F3D56"/>
<path d="M239.638 63.2282V71.8507C239.61 72.3206 239.43 72.7584 239.135 73.0694C238.841 73.3804 238.457 73.5395 238.066 73.5123H232.412V61.5667H238.066C238.457 61.5395 238.841 61.6986 239.135 62.0096C239.43 62.3206 239.61 62.7584 239.638 63.2282Z" fill="#BAD1FB"/>
<path d="M67.932 230.522C71.586 232.066 75.5093 232.453 79.3238 231.645C83.1383 230.837 86.7155 228.862 89.7107 225.909C97.3388 218.211 99.7304 205.528 101.676 193.785C103.595 182.206 105.514 170.628 107.432 159.05L95.3818 169.026C86.7158 176.201 77.8546 183.606 71.8543 193.998C65.854 204.39 63.2349 218.576 68.0559 229.821" fill="#E6E6E6"/>
<path d="M68.9621 272.576C67.7424 261.894 66.4883 251.075 67.3438 240.278C68.1036 230.69 70.5365 221.324 75.4897 213.645C78.1188 209.577 81.3179 206.091 84.9433 203.345C85.8886 202.628 86.7587 204.429 85.8175 205.143C79.5446 209.91 74.6928 216.949 71.9615 225.245C68.9449 234.471 68.4605 244.528 68.9803 254.328C69.2947 260.254 69.9609 266.142 70.6323 272.022C70.6852 272.288 70.6522 272.569 70.5399 272.806C70.4277 273.044 70.2445 273.222 70.0274 273.303C69.806 273.375 69.57 273.339 69.3705 273.203C69.1711 273.067 69.0243 272.842 68.9621 272.576L68.9621 272.576Z" fill="#F2F2F2"/>
<path d="M80.7097 253.674C82.2768 256.538 84.431 258.868 86.9646 260.44C89.4982 262.013 92.3259 262.774 95.1753 262.651C102.498 262.233 108.603 256.088 114.098 250.254L130.353 232.998L119.595 232.379C111.859 231.933 103.923 231.518 96.554 234.387C89.1854 237.255 82.3896 244.159 81.0422 253.33" fill="#E6E6E6"/>
<path d="M65.5152 278.717C71.3856 266.227 78.1949 252.346 90.3617 247.91C93.7448 246.681 97.292 246.24 100.813 246.612C101.922 246.727 101.645 248.784 100.538 248.669C94.6363 248.08 88.7465 249.954 83.8596 253.975C79.1571 257.823 75.4956 263.174 72.3966 268.848C70.4984 272.324 68.7981 275.947 67.0974 279.565C66.5539 280.721 64.9654 279.887 65.5152 278.717L65.5152 278.717Z" fill="#F2F2F2"/>
<path d="M56.1091 291.863C56.3069 289.107 57.1298 286.47 58.4881 284.237C59.8464 282.005 61.6881 280.264 63.8127 279.203V271.982H73.8846V279.43C75.9046 280.543 77.643 282.28 78.9226 284.464C80.2022 286.648 80.9773 289.201 81.1687 291.863L83.5371 324.965H53.7407L56.1091 291.863Z" fill="#F2F2F2"/>
<path d="M398.639 133.806L395.643 132.289L393.587 114.229H366.216L363.988 132.215L361.307 133.827C361.179 133.904 361.076 134.031 361.015 134.187C360.955 134.343 360.939 134.519 360.972 134.687C361.005 134.855 361.084 135.005 361.197 135.112C361.309 135.219 361.449 135.277 361.592 135.277H398.392C398.539 135.277 398.681 135.216 398.795 135.104C398.909 134.992 398.987 134.836 399.016 134.663C399.045 134.49 399.023 134.31 398.955 134.154C398.886 133.997 398.774 133.875 398.639 133.806V133.806Z" fill="#E6E6E6"/>
<path d="M447.28 116.632H312.824C312.118 116.63 311.442 116.292 310.944 115.691C310.445 115.091 310.166 114.277 310.166 113.429V90.6316H449.938V113.429C449.938 114.277 449.658 115.091 449.16 115.691C448.661 116.292 447.985 116.63 447.28 116.632V116.632Z" fill="#CCCCCC"/>
<path d="M450.078 101.406H310.043V3.86108C310.044 2.8374 310.383 1.85598 310.985 1.13214C311.587 0.408305 312.403 0.00114543 313.254 0H446.867C447.718 0.00114541 448.535 0.408306 449.137 1.13214C449.739 1.85598 450.077 2.83739 450.078 3.86108L450.078 101.406Z" fill="#3F3D56"/>
<path d="M441.715 94.3263H318.407C317.75 94.3254 317.121 94.0116 316.657 93.4535C316.193 92.8955 315.932 92.1389 315.931 91.3497V10.0565C315.932 9.26725 316.193 8.5106 316.657 7.95254C317.121 7.39447 317.75 7.08056 318.407 7.07965H441.715C442.371 7.08056 443 7.39447 443.464 7.95254C443.928 8.5106 444.19 9.26725 444.19 10.0565V91.3497C444.19 92.1389 443.928 92.8955 443.464 93.4535C443 94.0116 442.371 94.3254 441.715 94.3263V94.3263Z" fill="white"/>
<path d="M409.237 123.011C410.033 122.126 410.981 121.463 412.013 121.067C413.046 120.671 414.138 120.551 415.213 120.718C416.288 120.884 417.319 121.332 418.235 122.029C419.15 122.726 419.927 123.657 420.511 124.754L437.19 121.189L441.464 132.847L417.852 137.485C416.253 138.542 414.387 138.858 412.608 138.372C410.829 137.886 409.259 136.633 408.198 134.848C407.136 133.064 406.655 130.874 406.847 128.692C407.038 126.51 407.889 124.489 409.237 123.011V123.011Z" fill="#FFB6B6"/>
<path d="M424.679 137.897L442.067 137.636L444.268 137.6L479.645 137.064C479.645 137.064 489.252 126.045 497.617 114.699L496.444 104.502C495.301 94.4947 491.172 85.3279 484.827 78.7076C472.846 88.3334 465.898 107.386 465.898 107.386L443.963 113.695L441.769 114.326L428.139 118.242L424.679 137.897Z" fill="#B3E4EE"/>
<path d="M513.691 200.571H481.234C481.234 202.243 445.754 203.6 445.754 203.6C444.971 204.309 444.258 205.122 443.627 206.024C441.733 208.74 440.698 212.173 440.705 215.717V218.141C440.706 222.158 442.033 226.009 444.396 228.849C446.758 231.69 449.961 233.286 453.302 233.287H513.691C517.031 233.284 520.233 231.687 522.595 228.847C524.957 226.007 526.285 222.157 526.288 218.141V215.717C526.283 211.702 524.954 207.853 522.593 205.013C520.232 202.174 517.03 200.577 513.691 200.571V200.571Z" fill="#E4E4E4"/>
<path d="M490.088 232.686H476.987V323.609H490.088V232.686Z" fill="#E4E4E4"/>
<path d="M439.7 323.056C439.7 324.758 459.552 323.714 484.041 323.714C508.531 323.714 528.383 324.758 528.383 323.056C528.383 321.354 508.531 307.857 484.041 307.857C459.552 307.857 439.7 321.354 439.7 323.056Z" fill="#E4E4E4"/>
<path d="M430.899 312.667L421.149 312.666L416.511 267.447L430.901 267.447L430.899 312.667Z" fill="#FFB6B6"/>
<path d="M433.386 324.031L401.947 324.029V323.551C401.947 319.649 403.236 315.907 405.531 313.148C407.826 310.388 410.938 308.838 414.184 308.838H414.185L433.386 308.839L433.386 324.031Z" fill="#2F2E41"/>
<path d="M402.082 312.667L392.331 312.666L387.693 267.447L402.083 267.447L402.082 312.667Z" fill="#FFB6B6"/>
<path d="M404.568 324.031L373.129 324.029V323.551C373.129 319.649 374.419 315.907 376.714 313.148C379.008 310.388 382.121 308.838 385.366 308.838H385.367L404.569 308.839L404.568 324.031Z" fill="#2F2E41"/>
<path d="M489.422 52.3337C498.785 52.3337 506.375 43.2074 506.375 31.9497C506.375 20.6919 498.785 11.5657 489.422 11.5657C480.059 11.5657 472.469 20.6919 472.469 31.9497C472.469 43.2074 480.059 52.3337 489.422 52.3337Z" fill="#FFB6B6"/>
<path d="M516.86 171.613C516.86 171.613 522.548 207.779 500.906 212.384C479.263 216.99 448.021 220.227 448.021 220.227L433.991 298.932L415.142 296.908C415.142 296.908 417.649 202.165 423.814 194.753C429.979 187.34 468.942 165.146 468.942 165.146L516.86 171.613Z" fill="#2F2E41"/>
<path d="M474.59 156.456L465.125 167.873C465.125 167.873 396.778 181.11 394.141 200.091C390.16 228.747 385.459 291.062 385.459 291.062L406.008 289.209L414.066 218.374L446.944 209.381L484.351 184.87L474.59 156.456Z" fill="#2F2E41"/>
<path d="M505.736 19.782C504.062 15.9855 501.936 8.41913 498.558 7.01586C496.682 6.26799 494.743 5.77139 492.777 5.53508L487.036 8.19019L490.16 5.2681C489.552 5.22452 488.944 5.1889 488.336 5.16123L484.463 6.95264L486.444 5.09924C482.833 5.05467 479.105 5.50618 476.307 8.14963C473.921 10.4032 471.558 18.94 471.175 22.5586C470.767 26.0204 470.91 29.5439 471.597 32.9414L472.578 34.063C472.921 33.1169 473.179 32.1293 473.348 31.1172C473.699 29.2261 474.375 27.4439 475.331 25.8841C476.287 24.3242 477.503 23.021 478.901 22.0575L478.955 22.0213C480.6 20.9079 482.597 20.9592 484.484 21.0409L493.445 21.4286C495.601 21.5219 497.922 21.6859 499.603 23.312C500.672 24.5116 501.512 25.9746 502.066 27.601C502.901 29.6279 504.533 37.2728 504.533 37.2728C504.533 37.2728 505.456 35.8297 505.899 36.9038C506.609 34.1015 507.04 31.208 507.184 28.2837C507.326 25.3465 506.826 22.4158 505.736 19.782V19.782Z" fill="#2F2E41"/>
<path d="M565.029 40.9014C563.948 40.987 562.895 41.3567 561.946 41.9844C560.996 42.6121 560.172 43.4825 559.533 44.5344C558.893 45.5863 558.453 46.794 558.243 48.0726C558.034 49.3511 558.06 50.6693 558.32 51.9343L544.687 64.0257L548.778 75.779L567.83 58.3786C569.569 57.7124 571.044 56.3027 571.976 54.4164C572.907 52.5301 573.231 50.2984 572.886 48.1441C572.541 45.9898 571.55 44.0627 570.102 42.7278C568.654 41.3929 566.849 40.743 565.029 40.9014V40.9014Z" fill="#FFB6B6"/>
<path d="M562.835 65.586L528.659 111.224C528.659 111.224 512.316 104.933 499.676 98.1127L493.998 77.1426C492.679 72.2778 492.116 67.1627 492.338 62.053C509.86 56.4467 530.241 77.3069 530.241 77.3069L555.823 53.213L562.835 65.586Z" fill="#B3E5ED"/>
<path d="M483.09 174.984C476.992 172.451 470.688 169.833 463.887 168.85L463.595 168.807L463.676 168.467C470.715 138.747 468.958 119.735 465.508 91.177C464.775 85.017 465.717 78.7369 468.196 73.274C470.674 67.8111 474.556 63.4584 479.26 60.8656L479.302 60.8429L498.725 59.3589L498.769 59.3556L512.895 64.351C514.928 65.075 516.706 66.58 517.959 68.6356C519.211 70.6911 519.869 73.1838 519.831 75.7317C519.678 85.1237 520.002 95.6095 520.346 106.711C521.117 131.616 521.914 157.369 517.391 174.078L517.367 174.166L517.307 174.222C513.149 178.294 507.939 180.495 502.577 180.444C496.236 180.444 489.766 177.757 483.09 174.984Z" fill="#B4E2EF"/>
<path d="M624.097 326H0.903181C0.663643 326 0.433918 325.886 0.264539 325.682C0.0951606 325.478 0 325.202 0 324.914C0 324.626 0.0951606 324.35 0.264539 324.146C0.433918 323.942 0.663643 323.828 0.903181 323.828H624.097C624.336 323.828 624.566 323.942 624.735 324.146C624.905 324.35 625 324.626 625 324.914C625 325.202 624.905 325.478 624.735 325.682C624.566 325.886 624.336 326 624.097 326Z" fill="#CCCCCC"/>
</svg>
